<mxfile host="app.diagrams.net" modified="2023-08-21T10:37:08.908Z" agent="Mozilla/5.0 (Windows NT 10.0; Win64; x64; rv:109.0) Gecko/20100101 Firefox/116.0" version="21.2.1" etag="dGPWMFc4sg4lX9OYhoUm" type="github">
  <diagram name="Page-1" id="URzkTmiiIvkx7gLiuydr">
    <mxGraphModel>
      <root>
        <mxCell id="0" />
        <mxCell id="1" parent="0" />
      </root>
    </mxGraphModel>
  </diagram>
</mxfile>
